<svg width="640" height="680" viewBox="0 0 640 680" fill="none" xmlns="http://www.w3.org/2000/svg">
  <rect width="640" height="680" rx="42" fill="#EEE8E4"/>
  <circle cx="320" cy="294" r="218" fill="#E4D8D1"/>
  <path d="M146 292C146 130 226 55 322 55C426 55 500 137 494 298L455 264H183L146 292Z" fill="#332B29"/>
  <path d="M198 228C205 126 252 90 320 90C390 90 438 130 445 228V376C445 482 390 554 320 554C249 554 194 482 194 376L198 228Z" fill="#F7DED1"/>
  <path d="M202 224C217 157 254 121 320 115C386 121 423 157 438 224C391 202 362 168 320 138C278 168 249 202 202 224Z" fill="#413431"/>
  <path d="M226 293C250 278 276 279 299 294" stroke="#514846" stroke-width="7" stroke-linecap="round"/>
  <path d="M341 294C364 279 391 278 414 293" stroke="#514846" stroke-width="7" stroke-linecap="round"/>
  <ellipse cx="265" cy="318" rx="26" ry="14" fill="white"/>
  <ellipse cx="375" cy="318" rx="26" ry="14" fill="white"/>
  <circle cx="268" cy="318" r="10" fill="#51413E"/><circle cx="372" cy="318" r="10" fill="#51413E"/>
  <path d="M320 324C315 359 307 382 320 389C330 391 338 386 342 380" stroke="#C79D8C" stroke-width="5" stroke-linecap="round"/>
  <path d="M280 425C305 441 337 441 361 425C339 415 304 415 280 425Z" fill="#C98F88"/>
  <path d="M229 375C250 369 270 373 283 385" stroke="#E9BEB2" stroke-width="10" stroke-linecap="round" opacity=".35"/>
  <path d="M411 375C390 369 370 373 357 385" stroke="#E9BEB2" stroke-width="10" stroke-linecap="round" opacity=".35"/>
  <path d="M220 552C248 525 285 518 320 518C357 518 395 526 421 552L486 680H154L220 552Z" fill="#D9C9C0"/>
</svg>
